<svg xmlns="http://www.w3.org/2000/svg" viewBox="0 0 200 200" width="200" height="200">
  <!-- خلفية دائرية -->
  <circle cx="100" cy="100" r="95" fill="#003080" opacity="0.1"/>
  
  <!-- جسم السمكة -->
  <ellipse cx="100" cy="100" rx="60" ry="30" fill="#003080"/>
  
  <!-- الذيل -->
  <path d="M 40 100 L 20 80 L 30 100 L 20 120 Z" fill="#003080"/>
  
  <!-- الزعنفة العلوية -->
  <path d="M 90 70 L 85 50 L 100 75 Z" fill="#0050C0"/>
  
  <!-- الزعنفة السفلية -->
  <path d="M 90 130 L 85 150 L 100 125 Z" fill="#0050C0"/>
  
  <!-- العين -->
  <circle cx="140" cy="95" r="8" fill="white"/>
  <circle cx="143" cy="93" r="4" fill="#003080"/>
  
  <!-- الخياشيم -->
  <path d="M 130 100 Q 125 105 130 110" stroke="#0050C0" stroke-width="2" fill="none"/>
  <path d="M 125 100 Q 120 105 125 110" stroke="#0050C0" stroke-width="2" fill="none"/>
  
  <!-- خطوط الجسم -->
  <path d="M 70 90 Q 100 88 130 90" stroke="#0050C0" stroke-width="1.5" fill="none" opacity="0.6"/>
  <path d="M 70 110 Q 100 112 130 110" stroke="#0050C0" stroke-width="1.5" fill="none" opacity="0.6"/>
  
  <!-- الفم -->
  <path d="M 155 100 Q 165 100 160 105" stroke="#0050C0" stroke-width="2" fill="none" stroke-linecap="round"/>
</svg>
